# xmcd
#
# Track frame offsets:
#	150
#	10997
#	23410
#	41772
#	57352
#	72265
#	89745
#	104087
#	117342
#	138300
#
# Disc length: 2063 seconds
#
# Revision: 1
# Processed by: cddbd v1.5PL3 Copyright (c) Steve Scherf et al.
# Submitted via: audiograbber 1.80.04
#
DISCID=8b080d0a
DTITLE=Scott Copeland - Dig Your Deal
DYEAR=2001
DGENRE=Country Blues
TTITLE0=Paranoid Schizo Blues
TTITLE1=Nothing to Do
TTITLE2=Rolling Down Hill
TTITLE3=Upon My Shoulder
TTITLE4=St. Peter
TTITLE5=Alien Weed
TTITLE6=Living Hell
TTITLE7=Roll Your Stone Away
TTITLE8=Light House Keeper
TTITLE9=Slick Willie
EXTD=
EXTT0=
EXTT1=
EXTT2=
EXTT3=
EXTT4=
EXTT5=
EXTT6=
EXTT7=
EXTT8=
EXTT9=
PLAYORDER=
